<?xml version="1.0"?>

<svg xmlns="http://www.w3.org/2000/svg"
     xmlns:xlink="http://www.w3.org/1999/xlink"
     xmlns:ev="http://www.w3.org/2001/xml-events" 
     xmlns:im="http://www.bayliss-it.com.au/2012/imageproc"
     width="128" height="128">
    
    <im:convert>
        -radial-blur 15 -blur 2x2
    </im:convert>
       
    <g style="stroke:#aaaaaa; stroke-width: 1; fill: #aaaaaa">
        <rect x="0" y="0" width="100%" height="100%" style="fill:white"/>
        <path d="M 64 64 l -5 -70 l 10,15 Z" transform="rotate(-5,64,64)" />
        <path d="M 64 64 l -5 -50 l 10,0 Z" transform="rotate(20,64,64)" />
        <path d="M 64 64 l -5 -60 l 35,0 Z" transform="rotate(45,64,64)" />
        <path d="M 64 64 l -5 -50 l 35,0 Z" transform="rotate(115,64,64)" />
        <path d="M 64 64 l -5 -70 l 5,5 Z" transform="rotate(175,64,64)" />   
        <path d="M 64 64 l -5 -70 l 15,15 Z" transform="rotate(215,64,64)" />   
        <path d="M 64 64 l -5 -70 l 15,15 Z" transform="rotate(260,64,64)" />
        <path d="M 64 64 l -5 -70 l 5,-7 Z" transform="rotate(315,64,64)"/>   
    </g>    
</svg>
